# xmcd
#
# Track frame offsets:
#	150
#	8938
#	22144
#	31827
#	44284
#	59743
#	70721
#	82504
#	92398
#	106084
#	116960
#	132307
#	149533
#	161647
#	173203
#	187092
#	198722
#	209604
#	222549
#	235815
#	247896
#	261058
#	275492
#	291507
#	306723
#	318253
#
# Disc length: 4463 seconds
#
# Revision: 0
# Processed by: cddbd v1.5.2PL0 Copyright (c) Steve Scherf et al.
# Submitted via: audiograbber 1.83.01
#
DISCID=8f116d1a
DTITLE=Margo Smith - Margo Smith CD3
DYEAR=1996
DGENRE=Country
TTITLE0=When, Where And
TTITLE1=Without Angie
TTITLE2=Saturday Night At The General
TTITLE3=Happiness
TTITLE4=The Rain Falls
TTITLE5=A Brand New Broken Heart
TTITLE6=Ain't We Just A Couple Fools
TTITLE7=An Old Memory Got in My Eye
TTITLE8=Boogie Woogie Yodelers Blues
TTITLE9=Cross Your Heart
TTITLE10=Down By The Tabernacle
TTITLE11=Except For You
TTITLE12=Get Back In the Swing
TTITLE13=Harbor Lights
TTITLE14=Heart Times
TTITLE15=Hold Me
TTITLE16=I Forgave (But I Forgot To For
TTITLE17=Make Love The Way We Used To
TTITLE18=Memories Are Mad
TTITLE19=Ode To A Cheater
TTITLE20=One Thorn At A Time
TTITLE21=Patti's Prayer
TTITLE22=Played Him Like A Fiddle
TTITLE23=Sadie
TTITLE24=The Lamb Always Wins
TTITLE25=The Littlest Star
EXTD=
EXTT0=
EXTT1=
EXTT2=
EXTT3=
EXTT4=
EXTT5=
EXTT6=
EXTT7=
EXTT8=
EXTT9=
EXTT10=
EXTT11=
EXTT12=
EXTT13=
EXTT14=
EXTT15=
EXTT16=
EXTT17=
EXTT18=
EXTT19=
EXTT20=
EXTT21=
EXTT22=
EXTT23=
EXTT24=
EXTT25=
PLAYORDER=
